<mxfile host="app.diagrams.net" modified="2023-12-13T19:55:28.771Z" agent="Mozilla/5.0 (Windows NT 10.0; Win64; x64) AppleWebKit/537.36 (KHTML, like Gecko) Chrome/120.0.0.0 Safari/537.36" etag="0HAVzRF5F1FnkugvDFvf" version="22.1.8" type="device">
  <diagram name="Page-1" id="a8V_CfgVgJXDA10CIf-b">
    <mxGraphModel dx="1304" dy="720" grid="1" gridSize="10" guides="1" tooltips="1" connect="1" arrows="1" fold="1" page="1" pageScale="1" pageWidth="850" pageHeight="1100" math="0" shadow="0">
      <root>
        <mxCell id="0" />
        <mxCell id="1" parent="0" />
        <mxCell id="sj15twGNSAmVVpdZNBT5-38" value="" style="rounded=1;whiteSpace=wrap;html=1;rotation=90;fillColor=#d5e8d4;strokeColor=#82b366;" parent="1" vertex="1">
          <mxGeometry x="-72.5" y="142.5" width="425" height="160" as="geometry" />
        </mxCell>
        <mxCell id="sj15twGNSAmVVpdZNBT5-4" value="&lt;font style=&quot;font-size: 13px;&quot;&gt;Postos de Vendas&lt;/font&gt;" style="text;html=1;strokeColor=none;fillColor=none;align=center;verticalAlign=middle;whiteSpace=wrap;rounded=0;fontStyle=1" parent="1" vertex="1">
          <mxGeometry x="80" y="10" width="120" height="30" as="geometry" />
        </mxCell>
        <mxCell id="sj15twGNSAmVVpdZNBT5-6" value="" style="group" parent="1" vertex="1" connectable="0">
          <mxGeometry x="80" y="68" width="120" height="80" as="geometry" />
        </mxCell>
        <mxCell id="sj15twGNSAmVVpdZNBT5-1" value="" style="fontColor=#0066CC;verticalAlign=top;verticalLabelPosition=bottom;labelPosition=center;align=center;html=1;outlineConnect=0;fillColor=#CCCCCC;strokeColor=#6881B3;gradientColor=none;gradientDirection=north;strokeWidth=2;shape=mxgraph.networks.pc;" parent="sj15twGNSAmVVpdZNBT5-6" vertex="1">
          <mxGeometry width="120" height="80" as="geometry" />
        </mxCell>
        <mxCell id="sj15twGNSAmVVpdZNBT5-5" value="&lt;b&gt;PointOfSales&lt;/b&gt;" style="text;html=1;strokeColor=none;fillColor=none;align=center;verticalAlign=middle;whiteSpace=wrap;rounded=0;" parent="sj15twGNSAmVVpdZNBT5-6" vertex="1">
          <mxGeometry x="42" y="17" width="60" height="30" as="geometry" />
        </mxCell>
        <mxCell id="sj15twGNSAmVVpdZNBT5-7" value="" style="group" parent="1" vertex="1" connectable="0">
          <mxGeometry x="80" y="200" width="120" height="80" as="geometry" />
        </mxCell>
        <mxCell id="sj15twGNSAmVVpdZNBT5-8" value="" style="fontColor=#0066CC;verticalAlign=top;verticalLabelPosition=bottom;labelPosition=center;align=center;html=1;outlineConnect=0;fillColor=#CCCCCC;strokeColor=#6881B3;gradientColor=none;gradientDirection=north;strokeWidth=2;shape=mxgraph.networks.pc;" parent="sj15twGNSAmVVpdZNBT5-7" vertex="1">
          <mxGeometry width="120" height="80" as="geometry" />
        </mxCell>
        <mxCell id="sj15twGNSAmVVpdZNBT5-9" value="&lt;b&gt;PointOfSales&lt;/b&gt;" style="text;html=1;strokeColor=none;fillColor=none;align=center;verticalAlign=middle;whiteSpace=wrap;rounded=0;" parent="sj15twGNSAmVVpdZNBT5-7" vertex="1">
          <mxGeometry x="42" y="17" width="60" height="30" as="geometry" />
        </mxCell>
        <mxCell id="sj15twGNSAmVVpdZNBT5-10" value="" style="group" parent="1" vertex="1" connectable="0">
          <mxGeometry x="80" y="320" width="120" height="80" as="geometry" />
        </mxCell>
        <mxCell id="sj15twGNSAmVVpdZNBT5-11" value="" style="fontColor=#0066CC;verticalAlign=top;verticalLabelPosition=bottom;labelPosition=center;align=center;html=1;outlineConnect=0;fillColor=#CCCCCC;strokeColor=#6881B3;gradientColor=none;gradientDirection=north;strokeWidth=2;shape=mxgraph.networks.pc;" parent="sj15twGNSAmVVpdZNBT5-10" vertex="1">
          <mxGeometry width="120" height="80" as="geometry" />
        </mxCell>
        <mxCell id="sj15twGNSAmVVpdZNBT5-12" value="&lt;b&gt;PointOfSales&lt;/b&gt;" style="text;html=1;strokeColor=none;fillColor=none;align=center;verticalAlign=middle;whiteSpace=wrap;rounded=0;" parent="sj15twGNSAmVVpdZNBT5-10" vertex="1">
          <mxGeometry x="42" y="17" width="60" height="30" as="geometry" />
        </mxCell>
        <mxCell id="sj15twGNSAmVVpdZNBT5-16" value="&lt;" style="group" parent="1" vertex="1" connectable="0">
          <mxGeometry x="360" y="200" width="80" height="80" as="geometry" />
        </mxCell>
        <mxCell id="sj15twGNSAmVVpdZNBT5-13" value="" style="ellipse;whiteSpace=wrap;html=1;aspect=fixed;fillColor=#ffe6cc;strokeColor=#d79b00;strokeWidth=2;" parent="sj15twGNSAmVVpdZNBT5-16" vertex="1">
          <mxGeometry width="80" height="80" as="geometry" />
        </mxCell>
        <mxCell id="sj15twGNSAmVVpdZNBT5-14" value="" style="endArrow=none;html=1;rounded=0;entryX=1;entryY=0;entryDx=0;entryDy=0;exitX=0;exitY=1;exitDx=0;exitDy=0;strokeColor=#D79B00;strokeWidth=2;" parent="sj15twGNSAmVVpdZNBT5-16" source="sj15twGNSAmVVpdZNBT5-13" target="sj15twGNSAmVVpdZNBT5-13" edge="1">
          <mxGeometry width="50" height="50" relative="1" as="geometry">
            <mxPoint x="15" y="70" as="sourcePoint" />
            <mxPoint x="65" y="20" as="targetPoint" />
          </mxGeometry>
        </mxCell>
        <mxCell id="sj15twGNSAmVVpdZNBT5-15" value="" style="endArrow=none;html=1;rounded=0;entryX=1;entryY=1;entryDx=0;entryDy=0;exitX=0;exitY=0;exitDx=0;exitDy=0;strokeColor=#D79B00;strokeWidth=2;" parent="sj15twGNSAmVVpdZNBT5-16" source="sj15twGNSAmVVpdZNBT5-13" target="sj15twGNSAmVVpdZNBT5-13" edge="1">
          <mxGeometry width="50" height="50" relative="1" as="geometry">
            <mxPoint x="-40" y="140" as="sourcePoint" />
            <mxPoint x="10" y="90" as="targetPoint" />
          </mxGeometry>
        </mxCell>
        <mxCell id="sj15twGNSAmVVpdZNBT5-18" value="&lt;b&gt;TOPIC&lt;/b&gt;&lt;br&gt;ExgSales" style="text;html=1;strokeColor=none;fillColor=none;align=center;verticalAlign=middle;whiteSpace=wrap;rounded=0;" parent="1" vertex="1">
          <mxGeometry x="370" y="287" width="60" height="30" as="geometry" />
        </mxCell>
        <mxCell id="sj15twGNSAmVVpdZNBT5-20" style="rounded=0;orthogonalLoop=1;jettySize=auto;html=1;exitX=1;exitY=0.5;exitDx=0;exitDy=0;exitPerimeter=0;entryX=0;entryY=0.5;entryDx=0;entryDy=0;" parent="1" source="sj15twGNSAmVVpdZNBT5-1" target="sj15twGNSAmVVpdZNBT5-13" edge="1">
          <mxGeometry relative="1" as="geometry" />
        </mxCell>
        <mxCell id="sj15twGNSAmVVpdZNBT5-22" value="" style="endArrow=classic;html=1;rounded=0;exitX=1;exitY=0.5;exitDx=0;exitDy=0;exitPerimeter=0;entryX=0;entryY=0.5;entryDx=0;entryDy=0;" parent="1" source="sj15twGNSAmVVpdZNBT5-8" target="sj15twGNSAmVVpdZNBT5-13" edge="1">
          <mxGeometry width="50" height="50" relative="1" as="geometry">
            <mxPoint x="280" y="350" as="sourcePoint" />
            <mxPoint x="430" y="460" as="targetPoint" />
          </mxGeometry>
        </mxCell>
        <mxCell id="sj15twGNSAmVVpdZNBT5-23" value="" style="endArrow=classic;html=1;rounded=0;entryX=0;entryY=0.5;entryDx=0;entryDy=0;" parent="1" source="sj15twGNSAmVVpdZNBT5-11" target="sj15twGNSAmVVpdZNBT5-13" edge="1">
          <mxGeometry width="50" height="50" relative="1" as="geometry">
            <mxPoint x="400" y="320" as="sourcePoint" />
            <mxPoint x="450" y="270" as="targetPoint" />
          </mxGeometry>
        </mxCell>
        <mxCell id="sj15twGNSAmVVpdZNBT5-27" value="" style="strokeWidth=2;html=1;shape=mxgraph.flowchart.direct_data;whiteSpace=wrap;fillColor=#dae8fc;strokeColor=#6c8ebf;" parent="1" vertex="1">
          <mxGeometry x="590" y="140" width="100" height="60" as="geometry" />
        </mxCell>
        <mxCell id="sj15twGNSAmVVpdZNBT5-28" value="alimentar" style="text;html=1;strokeColor=none;fillColor=none;align=center;verticalAlign=middle;whiteSpace=wrap;rounded=0;" parent="1" vertex="1">
          <mxGeometry x="610" y="200" width="60" height="30" as="geometry" />
        </mxCell>
        <mxCell id="sj15twGNSAmVVpdZNBT5-29" value="casa" style="text;html=1;strokeColor=none;fillColor=none;align=center;verticalAlign=middle;whiteSpace=wrap;rounded=0;" parent="1" vertex="1">
          <mxGeometry x="610" y="320" width="60" height="30" as="geometry" />
        </mxCell>
        <mxCell id="sj15twGNSAmVVpdZNBT5-30" value="" style="strokeWidth=2;html=1;shape=mxgraph.flowchart.direct_data;whiteSpace=wrap;fillColor=#f8cecc;strokeColor=#b85450;" parent="1" vertex="1">
          <mxGeometry x="590" y="260" width="100" height="60" as="geometry" />
        </mxCell>
        <mxCell id="sj15twGNSAmVVpdZNBT5-31" value="" style="endArrow=classic;html=1;rounded=0;exitX=1;exitY=0.5;exitDx=0;exitDy=0;entryX=0;entryY=0.5;entryDx=0;entryDy=0;entryPerimeter=0;" parent="1" source="sj15twGNSAmVVpdZNBT5-13" target="sj15twGNSAmVVpdZNBT5-27" edge="1">
          <mxGeometry width="50" height="50" relative="1" as="geometry">
            <mxPoint x="470" y="180" as="sourcePoint" />
            <mxPoint x="520" y="130" as="targetPoint" />
          </mxGeometry>
        </mxCell>
        <mxCell id="sj15twGNSAmVVpdZNBT5-32" value="" style="endArrow=classic;html=1;rounded=0;exitX=1;exitY=0.5;exitDx=0;exitDy=0;entryX=0;entryY=0.5;entryDx=0;entryDy=0;entryPerimeter=0;" parent="1" source="sj15twGNSAmVVpdZNBT5-13" target="sj15twGNSAmVVpdZNBT5-30" edge="1">
          <mxGeometry width="50" height="50" relative="1" as="geometry">
            <mxPoint x="490" y="420" as="sourcePoint" />
            <mxPoint x="540" y="370" as="targetPoint" />
          </mxGeometry>
        </mxCell>
        <mxCell id="sj15twGNSAmVVpdZNBT5-33" value="" style="html=1;verticalLabelPosition=bottom;align=center;labelBackgroundColor=#ffffff;verticalAlign=top;strokeWidth=2;strokeColor=#6c8ebf;shadow=0;dashed=0;shape=mxgraph.ios7.icons.mail;rotation=40;fillColor=#dae8fc;" parent="1" vertex="1">
          <mxGeometry x="300" y="178" width="30" height="16.5" as="geometry" />
        </mxCell>
        <mxCell id="sj15twGNSAmVVpdZNBT5-34" value="" style="html=1;verticalLabelPosition=bottom;align=center;labelBackgroundColor=#ffffff;verticalAlign=top;strokeWidth=2;strokeColor=#6c8ebf;shadow=0;dashed=0;shape=mxgraph.ios7.icons.mail;rotation=0;fillColor=#dae8fc;" parent="1" vertex="1">
          <mxGeometry x="280" y="218.5" width="30" height="16.5" as="geometry" />
        </mxCell>
        <mxCell id="sj15twGNSAmVVpdZNBT5-36" value="" style="html=1;verticalLabelPosition=bottom;align=center;labelBackgroundColor=#ffffff;verticalAlign=top;strokeWidth=2;strokeColor=#b85450;shadow=0;dashed=0;shape=mxgraph.ios7.icons.mail;rotation=-30;fillColor=#f8cecc;" parent="1" vertex="1">
          <mxGeometry x="233" y="309.5" width="30" height="16.5" as="geometry" />
        </mxCell>
        <mxCell id="sj15twGNSAmVVpdZNBT5-39" value="" style="html=1;verticalLabelPosition=bottom;align=center;labelBackgroundColor=#ffffff;verticalAlign=top;strokeWidth=2;strokeColor=#b85450;shadow=0;dashed=0;shape=mxgraph.ios7.icons.mail;rotation=0;fillColor=#f8cecc;" parent="1" vertex="1">
          <mxGeometry x="230" y="218.5" width="30" height="16.5" as="geometry" />
        </mxCell>
        <mxCell id="sj15twGNSAmVVpdZNBT5-40" value="" style="html=1;verticalLabelPosition=bottom;align=center;labelBackgroundColor=#ffffff;verticalAlign=top;strokeWidth=2;strokeColor=#b85450;shadow=0;dashed=0;shape=mxgraph.ios7.icons.mail;rotation=40;fillColor=#f8cecc;" parent="1" vertex="1">
          <mxGeometry x="270" y="152.25" width="30" height="16.5" as="geometry" />
        </mxCell>
        <mxCell id="sj15twGNSAmVVpdZNBT5-41" value="" style="html=1;verticalLabelPosition=bottom;align=center;labelBackgroundColor=#ffffff;verticalAlign=top;strokeWidth=2;strokeColor=#6c8ebf;shadow=0;dashed=0;shape=mxgraph.ios7.icons.mail;rotation=40;fillColor=#dae8fc;" parent="1" vertex="1">
          <mxGeometry x="240" y="125.5" width="30" height="16.5" as="geometry" />
        </mxCell>
        <mxCell id="sj15twGNSAmVVpdZNBT5-42" value="" style="html=1;verticalLabelPosition=bottom;align=center;labelBackgroundColor=#ffffff;verticalAlign=top;strokeWidth=2;strokeColor=#6c8ebf;shadow=0;dashed=0;shape=mxgraph.ios7.icons.mail;rotation=-30;fillColor=#dae8fc;" parent="1" vertex="1">
          <mxGeometry x="273" y="287" width="30" height="16.5" as="geometry" />
        </mxCell>
        <mxCell id="sj15twGNSAmVVpdZNBT5-43" value="" style="html=1;verticalLabelPosition=bottom;align=center;labelBackgroundColor=#ffffff;verticalAlign=top;strokeWidth=2;strokeColor=#6c8ebf;shadow=0;dashed=0;shape=mxgraph.ios7.icons.mail;rotation=-30;fillColor=#dae8fc;" parent="1" vertex="1">
          <mxGeometry x="313" y="264.5" width="30" height="16.5" as="geometry" />
        </mxCell>
        <mxCell id="sj15twGNSAmVVpdZNBT5-44" value="" style="html=1;verticalLabelPosition=bottom;align=center;labelBackgroundColor=#ffffff;verticalAlign=top;strokeWidth=2;strokeColor=#6c8ebf;shadow=0;dashed=0;shape=mxgraph.ios7.icons.mail;rotation=-25;fillColor=#dae8fc;" parent="1" vertex="1">
          <mxGeometry x="529" y="167.75" width="30" height="16.5" as="geometry" />
        </mxCell>
        <mxCell id="sj15twGNSAmVVpdZNBT5-45" value="" style="html=1;verticalLabelPosition=bottom;align=center;labelBackgroundColor=#ffffff;verticalAlign=top;strokeWidth=2;strokeColor=#6c8ebf;shadow=0;dashed=0;shape=mxgraph.ios7.icons.mail;rotation=-25;fillColor=#dae8fc;" parent="1" vertex="1">
          <mxGeometry x="478" y="191.5" width="30" height="16.5" as="geometry" />
        </mxCell>
        <mxCell id="sj15twGNSAmVVpdZNBT5-46" value="" style="html=1;verticalLabelPosition=bottom;align=center;labelBackgroundColor=#ffffff;verticalAlign=top;strokeWidth=2;strokeColor=#b85450;shadow=0;dashed=0;shape=mxgraph.ios7.icons.mail;rotation=20;fillColor=#f8cecc;" parent="1" vertex="1">
          <mxGeometry x="540" y="256.25" width="30" height="16.5" as="geometry" />
        </mxCell>
        <mxCell id="sj15twGNSAmVVpdZNBT5-47" value="" style="html=1;verticalLabelPosition=bottom;align=center;labelBackgroundColor=#ffffff;verticalAlign=top;strokeWidth=2;strokeColor=#b85450;shadow=0;dashed=0;shape=mxgraph.ios7.icons.mail;rotation=15;fillColor=#f8cecc;" parent="1" vertex="1">
          <mxGeometry x="491" y="239.75" width="30" height="16.5" as="geometry" />
        </mxCell>
        <mxCell id="6Te6nSp6kvVZIFbg21yk-3" value="&lt;" style="group" parent="1" vertex="1" connectable="0">
          <mxGeometry x="1228" y="98.5" width="80" height="80" as="geometry" />
        </mxCell>
        <mxCell id="6Te6nSp6kvVZIFbg21yk-4" value="" style="ellipse;whiteSpace=wrap;html=1;aspect=fixed;fillColor=#f8cecc;strokeColor=#b85450;strokeWidth=2;" parent="6Te6nSp6kvVZIFbg21yk-3" vertex="1">
          <mxGeometry width="80" height="80" as="geometry" />
        </mxCell>
        <mxCell id="6Te6nSp6kvVZIFbg21yk-5" value="" style="endArrow=none;html=1;rounded=0;entryX=1;entryY=0;entryDx=0;entryDy=0;exitX=0;exitY=1;exitDx=0;exitDy=0;strokeColor=#B85450;strokeWidth=2;fillColor=#d5e8d4;elbow=vertical;" parent="6Te6nSp6kvVZIFbg21yk-3" source="6Te6nSp6kvVZIFbg21yk-4" target="6Te6nSp6kvVZIFbg21yk-4" edge="1">
          <mxGeometry width="50" height="50" relative="1" as="geometry">
            <mxPoint x="15" y="70" as="sourcePoint" />
            <mxPoint x="65" y="20" as="targetPoint" />
          </mxGeometry>
        </mxCell>
        <mxCell id="6Te6nSp6kvVZIFbg21yk-6" value="" style="endArrow=none;html=1;rounded=0;entryX=1;entryY=1;entryDx=0;entryDy=0;exitX=0;exitY=0;exitDx=0;exitDy=0;strokeColor=#b85450;strokeWidth=2;elbow=vertical;fillColor=#f8cecc;" parent="6Te6nSp6kvVZIFbg21yk-3" source="6Te6nSp6kvVZIFbg21yk-4" target="6Te6nSp6kvVZIFbg21yk-4" edge="1">
          <mxGeometry width="50" height="50" relative="1" as="geometry">
            <mxPoint x="-40" y="140" as="sourcePoint" />
            <mxPoint x="10" y="90" as="targetPoint" />
          </mxGeometry>
        </mxCell>
        <mxCell id="6Te6nSp6kvVZIFbg21yk-7" value="&lt;b&gt;FANOUT&lt;/b&gt;&lt;br&gt;ex_12345679" style="text;html=1;strokeColor=none;fillColor=none;align=center;verticalAlign=middle;whiteSpace=wrap;rounded=0;" parent="1" vertex="1">
          <mxGeometry x="1238" y="188.5" width="60" height="30" as="geometry" />
        </mxCell>
        <mxCell id="6Te6nSp6kvVZIFbg21yk-17" style="edgeStyle=orthogonalEdgeStyle;rounded=0;orthogonalLoop=1;jettySize=auto;html=1;" parent="1" source="6Te6nSp6kvVZIFbg21yk-8" target="6Te6nSp6kvVZIFbg21yk-16" edge="1">
          <mxGeometry relative="1" as="geometry" />
        </mxCell>
        <mxCell id="6Te6nSp6kvVZIFbg21yk-8" value="" style="strokeWidth=2;html=1;shape=mxgraph.flowchart.direct_data;whiteSpace=wrap;fillColor=#f8cecc;strokeColor=#b85450;" parent="1" vertex="1">
          <mxGeometry x="1410" y="108.5" width="100" height="60" as="geometry" />
        </mxCell>
        <mxCell id="6Te6nSp6kvVZIFbg21yk-9" value="queue_12345679" style="text;html=1;strokeColor=none;fillColor=none;align=center;verticalAlign=middle;whiteSpace=wrap;rounded=0;" parent="1" vertex="1">
          <mxGeometry x="1390" y="168.5" width="130" height="30" as="geometry" />
        </mxCell>
        <mxCell id="6Te6nSp6kvVZIFbg21yk-10" style="edgeStyle=orthogonalEdgeStyle;rounded=0;orthogonalLoop=1;jettySize=auto;html=1;entryX=0;entryY=0.5;entryDx=0;entryDy=0;entryPerimeter=0;" parent="1" source="6Te6nSp6kvVZIFbg21yk-4" target="6Te6nSp6kvVZIFbg21yk-8" edge="1">
          <mxGeometry relative="1" as="geometry" />
        </mxCell>
        <mxCell id="6Te6nSp6kvVZIFbg21yk-11" value="" style="html=1;verticalLabelPosition=bottom;align=center;labelBackgroundColor=#ffffff;verticalAlign=top;strokeWidth=2;strokeColor=#666666;shadow=0;dashed=0;shape=mxgraph.ios7.icons.mail;rotation=0;fillColor=#f5f5f5;fontColor=#333333;" parent="1" vertex="1">
          <mxGeometry x="1340" y="118.5" width="30" height="16.5" as="geometry" />
        </mxCell>
        <mxCell id="6Te6nSp6kvVZIFbg21yk-14" style="edgeStyle=orthogonalEdgeStyle;rounded=0;orthogonalLoop=1;jettySize=auto;html=1;entryX=0;entryY=0.5;entryDx=0;entryDy=0;" parent="1" source="6Te6nSp6kvVZIFbg21yk-12" target="6Te6nSp6kvVZIFbg21yk-4" edge="1">
          <mxGeometry relative="1" as="geometry" />
        </mxCell>
        <mxCell id="6Te6nSp6kvVZIFbg21yk-12" value="" style="fontColor=#0066CC;verticalAlign=top;verticalLabelPosition=bottom;labelPosition=center;align=center;html=1;outlineConnect=0;fillColor=#CCCCCC;strokeColor=#6881B3;gradientColor=none;gradientDirection=north;strokeWidth=2;shape=mxgraph.networks.pc;" parent="1" vertex="1">
          <mxGeometry x="1010" y="98.5" width="120" height="80" as="geometry" />
        </mxCell>
        <mxCell id="6Te6nSp6kvVZIFbg21yk-13" value="Worker" style="text;html=1;strokeColor=none;fillColor=none;align=center;verticalAlign=middle;whiteSpace=wrap;rounded=0;fontStyle=1" parent="1" vertex="1">
          <mxGeometry x="1048" y="178.5" width="60" height="30" as="geometry" />
        </mxCell>
        <mxCell id="6Te6nSp6kvVZIFbg21yk-15" value="" style="html=1;verticalLabelPosition=bottom;align=center;labelBackgroundColor=#ffffff;verticalAlign=top;strokeWidth=2;strokeColor=#666666;shadow=0;dashed=0;shape=mxgraph.ios7.icons.mail;rotation=0;fillColor=#f5f5f5;fontColor=#333333;" parent="1" vertex="1">
          <mxGeometry x="1160" y="118.5" width="30" height="16.5" as="geometry" />
        </mxCell>
        <mxCell id="6Te6nSp6kvVZIFbg21yk-16" value="" style="image;points=[];aspect=fixed;html=1;align=center;shadow=0;dashed=0;image=img/lib/allied_telesis/computer_and_terminals/Server_Desktop.svg;" parent="1" vertex="1">
          <mxGeometry x="1591.5" y="80" width="92.3" height="117" as="geometry" />
        </mxCell>
        <mxCell id="6Te6nSp6kvVZIFbg21yk-18" value="" style="html=1;verticalLabelPosition=bottom;align=center;labelBackgroundColor=#ffffff;verticalAlign=top;strokeWidth=2;strokeColor=#666666;shadow=0;dashed=0;shape=mxgraph.ios7.icons.mail;rotation=0;fillColor=#f5f5f5;fontColor=#333333;" parent="1" vertex="1">
          <mxGeometry x="1534" y="118.5" width="30" height="16.5" as="geometry" />
        </mxCell>
        <mxCell id="6Te6nSp6kvVZIFbg21yk-19" value="Server" style="text;html=1;strokeColor=none;fillColor=none;align=center;verticalAlign=middle;whiteSpace=wrap;rounded=0;fontStyle=1" parent="1" vertex="1">
          <mxGeometry x="1607.6499999999999" y="198.5" width="60" height="30" as="geometry" />
        </mxCell>
        <mxCell id="6Te6nSp6kvVZIFbg21yk-23" style="edgeStyle=orthogonalEdgeStyle;rounded=0;orthogonalLoop=1;jettySize=auto;html=1;entryX=0;entryY=0.5;entryDx=0;entryDy=0;" parent="1" source="6Te6nSp6kvVZIFbg21yk-20" target="6Te6nSp6kvVZIFbg21yk-21" edge="1">
          <mxGeometry relative="1" as="geometry">
            <Array as="points" />
          </mxGeometry>
        </mxCell>
        <mxCell id="6Te6nSp6kvVZIFbg21yk-24" value="[mensagem &quot;resume&quot; or &quot;start_election&quot;" style="edgeLabel;html=1;align=center;verticalAlign=middle;resizable=0;points=[];" parent="6Te6nSp6kvVZIFbg21yk-23" vertex="1" connectable="0">
          <mxGeometry x="0.0771" relative="1" as="geometry">
            <mxPoint x="-4" y="-10" as="offset" />
          </mxGeometry>
        </mxCell>
        <mxCell id="6Te6nSp6kvVZIFbg21yk-20" value="WORKING" style="rounded=1;whiteSpace=wrap;html=1;fillColor=#f5f5f5;fontColor=#333333;strokeColor=#666666;fontStyle=1" parent="1" vertex="1">
          <mxGeometry x="170" y="630" width="120" height="60" as="geometry" />
        </mxCell>
        <mxCell id="6Te6nSp6kvVZIFbg21yk-25" style="edgeStyle=orthogonalEdgeStyle;rounded=0;orthogonalLoop=1;jettySize=auto;html=1;entryX=0;entryY=0.5;entryDx=0;entryDy=0;exitX=1;exitY=0.5;exitDx=0;exitDy=0;" parent="1" source="6Te6nSp6kvVZIFbg21yk-21" target="6Te6nSp6kvVZIFbg21yk-22" edge="1">
          <mxGeometry relative="1" as="geometry">
            <Array as="points">
              <mxPoint x="580" y="660" />
              <mxPoint x="580" y="660" />
            </Array>
          </mxGeometry>
        </mxCell>
        <mxCell id="6Te6nSp6kvVZIFbg21yk-26" value="timeout" style="edgeLabel;html=1;align=center;verticalAlign=middle;resizable=0;points=[];" parent="6Te6nSp6kvVZIFbg21yk-25" vertex="1" connectable="0">
          <mxGeometry x="0.2682" y="-1" relative="1" as="geometry">
            <mxPoint x="29" y="-10" as="offset" />
          </mxGeometry>
        </mxCell>
        <mxCell id="6Te6nSp6kvVZIFbg21yk-27" style="edgeStyle=orthogonalEdgeStyle;rounded=0;orthogonalLoop=1;jettySize=auto;html=1;entryX=0.5;entryY=0;entryDx=0;entryDy=0;exitX=0.5;exitY=0;exitDx=0;exitDy=0;" parent="1" target="6Te6nSp6kvVZIFbg21yk-20" edge="1" source="6Te6nSp6kvVZIFbg21yk-21">
          <mxGeometry relative="1" as="geometry">
            <mxPoint x="175" y="790" as="sourcePoint" />
            <Array as="points">
              <mxPoint x="589" y="570" />
              <mxPoint x="230" y="570" />
            </Array>
          </mxGeometry>
        </mxCell>
        <mxCell id="6Te6nSp6kvVZIFbg21yk-28" value="mensagem &quot;start_election&quot; and id &amp;lt; senderID" style="edgeLabel;html=1;align=center;verticalAlign=middle;resizable=0;points=[];" parent="6Te6nSp6kvVZIFbg21yk-27" vertex="1" connectable="0">
          <mxGeometry x="-0.0449" relative="1" as="geometry">
            <mxPoint x="-30" y="-10" as="offset" />
          </mxGeometry>
        </mxCell>
        <mxCell id="6Te6nSp6kvVZIFbg21yk-21" value="IN_ELECTION" style="rounded=1;whiteSpace=wrap;html=1;fillColor=#f5f5f5;fontColor=#333333;strokeColor=#666666;fontStyle=1" parent="1" vertex="1">
          <mxGeometry x="529" y="630" width="120" height="60" as="geometry" />
        </mxCell>
        <mxCell id="MmM8YUKKUtYn1LZqMP53-3" style="edgeStyle=orthogonalEdgeStyle;rounded=0;orthogonalLoop=1;jettySize=auto;html=1;entryX=0.5;entryY=1;entryDx=0;entryDy=0;" edge="1" parent="1" source="6Te6nSp6kvVZIFbg21yk-22" target="6Te6nSp6kvVZIFbg21yk-20">
          <mxGeometry relative="1" as="geometry">
            <Array as="points">
              <mxPoint x="819" y="750" />
              <mxPoint x="230" y="750" />
            </Array>
          </mxGeometry>
        </mxCell>
        <mxCell id="MmM8YUKKUtYn1LZqMP53-4" value="[after resume task]" style="edgeLabel;html=1;align=center;verticalAlign=middle;resizable=0;points=[];" vertex="1" connectable="0" parent="MmM8YUKKUtYn1LZqMP53-3">
          <mxGeometry x="0.5316" y="-1" relative="1" as="geometry">
            <mxPoint x="201" y="13" as="offset" />
          </mxGeometry>
        </mxCell>
        <mxCell id="6Te6nSp6kvVZIFbg21yk-22" value="LEADER" style="rounded=1;whiteSpace=wrap;html=1;fillColor=#f5f5f5;fontColor=#333333;strokeColor=#666666;fontStyle=1" parent="1" vertex="1">
          <mxGeometry x="759" y="630" width="120" height="60" as="geometry" />
        </mxCell>
        <mxCell id="MmM8YUKKUtYn1LZqMP53-2" style="edgeStyle=orthogonalEdgeStyle;rounded=0;orthogonalLoop=1;jettySize=auto;html=1;entryX=0;entryY=0.5;entryDx=0;entryDy=0;" edge="1" parent="1" source="MmM8YUKKUtYn1LZqMP53-1" target="6Te6nSp6kvVZIFbg21yk-20">
          <mxGeometry relative="1" as="geometry" />
        </mxCell>
        <mxCell id="MmM8YUKKUtYn1LZqMP53-1" value="" style="ellipse;" vertex="1" parent="1">
          <mxGeometry x="80" y="645" width="30" height="30" as="geometry" />
        </mxCell>
        <mxCell id="MmM8YUKKUtYn1LZqMP53-5" value="Worker 101" style="rounded=0;whiteSpace=wrap;html=1;" vertex="1" parent="1">
          <mxGeometry x="1040" y="400" width="120" height="60" as="geometry" />
        </mxCell>
        <mxCell id="MmM8YUKKUtYn1LZqMP53-6" value="Worker 103" style="rounded=0;whiteSpace=wrap;html=1;" vertex="1" parent="1">
          <mxGeometry x="1248" y="400" width="120" height="60" as="geometry" />
        </mxCell>
        <mxCell id="MmM8YUKKUtYn1LZqMP53-8" value="Worker 102" style="rounded=0;whiteSpace=wrap;html=1;" vertex="1" parent="1">
          <mxGeometry x="1460" y="400" width="120" height="60" as="geometry" />
        </mxCell>
        <mxCell id="MmM8YUKKUtYn1LZqMP53-9" value="" style="verticalLabelPosition=bottom;shadow=0;dashed=0;align=center;html=1;verticalAlign=top;strokeWidth=1;shape=mxgraph.mockup.markup.line;strokeColor=#999999;direction=north;" vertex="1" parent="1">
          <mxGeometry x="1090" y="460" width="20" height="540" as="geometry" />
        </mxCell>
        <mxCell id="MmM8YUKKUtYn1LZqMP53-10" value="" style="verticalLabelPosition=bottom;shadow=0;dashed=0;align=center;html=1;verticalAlign=top;strokeWidth=1;shape=mxgraph.mockup.markup.line;strokeColor=#999999;direction=north;" vertex="1" parent="1">
          <mxGeometry x="1298" y="460" width="20" height="540" as="geometry" />
        </mxCell>
        <mxCell id="MmM8YUKKUtYn1LZqMP53-11" value="" style="verticalLabelPosition=bottom;shadow=0;dashed=0;align=center;html=1;verticalAlign=top;strokeWidth=1;shape=mxgraph.mockup.markup.line;strokeColor=#999999;direction=north;" vertex="1" parent="1">
          <mxGeometry x="1510" y="460" width="20" height="540" as="geometry" />
        </mxCell>
        <mxCell id="MmM8YUKKUtYn1LZqMP53-12" value="" style="rounded=1;whiteSpace=wrap;html=1;rotation=-90;fillColor=#fff2cc;strokeColor=#d6b656;" vertex="1" parent="1">
          <mxGeometry x="860" y="730" width="480" height="10" as="geometry" />
        </mxCell>
        <mxCell id="MmM8YUKKUtYn1LZqMP53-13" value="" style="rounded=1;whiteSpace=wrap;html=1;rotation=-90;fillColor=#fff2cc;strokeColor=#d6b656;" vertex="1" parent="1">
          <mxGeometry x="1068" y="730" width="480" height="10" as="geometry" />
        </mxCell>
        <mxCell id="MmM8YUKKUtYn1LZqMP53-14" value="" style="rounded=1;whiteSpace=wrap;html=1;rotation=-90;fillColor=#fff2cc;strokeColor=#d6b656;" vertex="1" parent="1">
          <mxGeometry x="1280" y="730" width="480" height="10" as="geometry" />
        </mxCell>
        <mxCell id="MmM8YUKKUtYn1LZqMP53-15" value="" style="edgeStyle=elbowEdgeStyle;elbow=vertical;endArrow=classic;html=1;curved=0;rounded=0;endSize=8;startSize=8;" edge="1" parent="1">
          <mxGeometry width="50" height="50" relative="1" as="geometry">
            <mxPoint x="1110" y="520" as="sourcePoint" />
            <mxPoint x="1300" y="520" as="targetPoint" />
          </mxGeometry>
        </mxCell>
        <mxCell id="MmM8YUKKUtYn1LZqMP53-16" value="" style="line;strokeWidth=2;html=1;" vertex="1" parent="1">
          <mxGeometry x="840" y="1150" width="680" height="10" as="geometry" />
        </mxCell>
        <mxCell id="MmM8YUKKUtYn1LZqMP53-17" value="" style="line;strokeWidth=2;html=1;" vertex="1" parent="1">
          <mxGeometry x="840" y="1230" width="680" height="10" as="geometry" />
        </mxCell>
        <mxCell id="MmM8YUKKUtYn1LZqMP53-19" value="" style="line;strokeWidth=2;html=1;" vertex="1" parent="1">
          <mxGeometry x="840" y="1310" width="680" height="10" as="geometry" />
        </mxCell>
        <mxCell id="MmM8YUKKUtYn1LZqMP53-21" value="" style="elbow=vertical;endArrow=classic;html=1;rounded=0;endSize=8;startSize=8;exitX=0.053;exitY=0.545;exitDx=0;exitDy=0;exitPerimeter=0;entryX=0.177;entryY=0.273;entryDx=0;entryDy=0;entryPerimeter=0;" edge="1" parent="1" source="MmM8YUKKUtYn1LZqMP53-16" target="MmM8YUKKUtYn1LZqMP53-17">
          <mxGeometry width="50" height="50" relative="1" as="geometry">
            <mxPoint x="1130" y="1090" as="sourcePoint" />
            <mxPoint x="1180" y="1040" as="targetPoint" />
          </mxGeometry>
        </mxCell>
        <mxCell id="MmM8YUKKUtYn1LZqMP53-22" value="" style="elbow=vertical;endArrow=classic;html=1;rounded=0;endSize=8;startSize=8;exitX=0.053;exitY=0.545;exitDx=0;exitDy=0;exitPerimeter=0;entryX=0.177;entryY=0.545;entryDx=0;entryDy=0;entryPerimeter=0;" edge="1" parent="1" source="MmM8YUKKUtYn1LZqMP53-16" target="MmM8YUKKUtYn1LZqMP53-19">
          <mxGeometry width="50" height="50" relative="1" as="geometry">
            <mxPoint x="890" y="1150" as="sourcePoint" />
            <mxPoint x="933" y="1230" as="targetPoint" />
          </mxGeometry>
        </mxCell>
        <mxCell id="MmM8YUKKUtYn1LZqMP53-23" value="" style="elbow=vertical;endArrow=classic;html=1;rounded=0;endSize=8;startSize=8;exitX=0.058;exitY=0.545;exitDx=0;exitDy=0;exitPerimeter=0;fillColor=#ffe6cc;strokeColor=#d79b00;" edge="1" parent="1" source="MmM8YUKKUtYn1LZqMP53-17">
          <mxGeometry width="50" height="50" relative="1" as="geometry">
            <mxPoint x="886" y="1165" as="sourcePoint" />
            <mxPoint x="960" y="1310" as="targetPoint" />
          </mxGeometry>
        </mxCell>
        <mxCell id="MmM8YUKKUtYn1LZqMP53-24" value="" style="elbow=vertical;endArrow=classic;html=1;rounded=0;endSize=8;startSize=8;exitX=0.056;exitY=0.455;exitDx=0;exitDy=0;exitPerimeter=0;entryX=0.173;entryY=0.636;entryDx=0;entryDy=0;entryPerimeter=0;fillColor=#ffe6cc;strokeColor=#d79b00;" edge="1" parent="1" source="MmM8YUKKUtYn1LZqMP53-17" target="MmM8YUKKUtYn1LZqMP53-16">
          <mxGeometry width="50" height="50" relative="1" as="geometry">
            <mxPoint x="889" y="1245" as="sourcePoint" />
            <mxPoint x="980" y="1335" as="targetPoint" />
          </mxGeometry>
        </mxCell>
        <mxCell id="MmM8YUKKUtYn1LZqMP53-25" value="" style="elbow=vertical;endArrow=classic;html=1;rounded=0;endSize=8;startSize=8;exitX=0.06;exitY=0.545;exitDx=0;exitDy=0;exitPerimeter=0;entryX=0.177;entryY=0.636;entryDx=0;entryDy=0;entryPerimeter=0;fillColor=#dae8fc;strokeColor=#6c8ebf;" edge="1" parent="1" source="MmM8YUKKUtYn1LZqMP53-19" target="MmM8YUKKUtYn1LZqMP53-16">
          <mxGeometry width="50" height="50" relative="1" as="geometry">
            <mxPoint x="889" y="1245" as="sourcePoint" />
            <mxPoint x="980" y="1335" as="targetPoint" />
          </mxGeometry>
        </mxCell>
        <mxCell id="MmM8YUKKUtYn1LZqMP53-26" value="" style="elbow=vertical;endArrow=classic;html=1;rounded=0;endSize=8;startSize=8;exitX=0.064;exitY=0.545;exitDx=0;exitDy=0;exitPerimeter=0;entryX=0.173;entryY=0.455;entryDx=0;entryDy=0;entryPerimeter=0;fillColor=#dae8fc;strokeColor=#6c8ebf;" edge="1" parent="1" source="MmM8YUKKUtYn1LZqMP53-19" target="MmM8YUKKUtYn1LZqMP53-17">
          <mxGeometry width="50" height="50" relative="1" as="geometry">
            <mxPoint x="891" y="1325" as="sourcePoint" />
            <mxPoint x="970" y="1166" as="targetPoint" />
          </mxGeometry>
        </mxCell>
        <mxCell id="MmM8YUKKUtYn1LZqMP53-27" value="Worker 1" style="text;html=1;strokeColor=none;fillColor=none;align=center;verticalAlign=middle;whiteSpace=wrap;rounded=0;" vertex="1" parent="1">
          <mxGeometry x="740" y="1140" width="79" height="30" as="geometry" />
        </mxCell>
        <mxCell id="MmM8YUKKUtYn1LZqMP53-28" value="Worker 10" style="text;html=1;strokeColor=none;fillColor=none;align=center;verticalAlign=middle;whiteSpace=wrap;rounded=0;" vertex="1" parent="1">
          <mxGeometry x="740" y="1220" width="79" height="30" as="geometry" />
        </mxCell>
        <mxCell id="MmM8YUKKUtYn1LZqMP53-29" value="Worker 5" style="text;html=1;strokeColor=none;fillColor=none;align=center;verticalAlign=middle;whiteSpace=wrap;rounded=0;" vertex="1" parent="1">
          <mxGeometry x="740" y="1300" width="79" height="30" as="geometry" />
        </mxCell>
        <mxCell id="MmM8YUKKUtYn1LZqMP53-30" value="" style="elbow=vertical;endArrow=classic;html=1;rounded=0;endSize=8;startSize=8;exitX=0.175;exitY=0.636;exitDx=0;exitDy=0;exitPerimeter=0;fillColor=#ffe6cc;strokeColor=#d79b00;entryX=0.298;entryY=0.818;entryDx=0;entryDy=0;entryPerimeter=0;" edge="1" parent="1" source="MmM8YUKKUtYn1LZqMP53-17" target="MmM8YUKKUtYn1LZqMP53-19">
          <mxGeometry width="50" height="50" relative="1" as="geometry">
            <mxPoint x="889" y="1245" as="sourcePoint" />
            <mxPoint x="970" y="1320" as="targetPoint" />
          </mxGeometry>
        </mxCell>
        <mxCell id="MmM8YUKKUtYn1LZqMP53-31" value="" style="elbow=vertical;endArrow=classic;html=1;rounded=0;endSize=8;startSize=8;exitX=0.172;exitY=0.545;exitDx=0;exitDy=0;exitPerimeter=0;fillColor=#ffe6cc;strokeColor=#d79b00;entryX=0.294;entryY=0.636;entryDx=0;entryDy=0;entryPerimeter=0;" edge="1" parent="1" source="MmM8YUKKUtYn1LZqMP53-17" target="MmM8YUKKUtYn1LZqMP53-16">
          <mxGeometry width="50" height="50" relative="1" as="geometry">
            <mxPoint x="969" y="1246" as="sourcePoint" />
            <mxPoint x="1053" y="1328" as="targetPoint" />
          </mxGeometry>
        </mxCell>
        <mxCell id="MmM8YUKKUtYn1LZqMP53-32" value="" style="elbow=vertical;endArrow=classic;html=1;rounded=0;endSize=8;startSize=8;exitX=0.173;exitY=0.364;exitDx=0;exitDy=0;exitPerimeter=0;entryX=0.295;entryY=0.818;entryDx=0;entryDy=0;entryPerimeter=0;fillColor=#dae8fc;strokeColor=#6c8ebf;" edge="1" parent="1" source="MmM8YUKKUtYn1LZqMP53-19" target="MmM8YUKKUtYn1LZqMP53-16">
          <mxGeometry width="50" height="50" relative="1" as="geometry">
            <mxPoint x="891" y="1325" as="sourcePoint" />
            <mxPoint x="970" y="1166" as="targetPoint" />
          </mxGeometry>
        </mxCell>
      </root>
    </mxGraphModel>
  </diagram>
</mxfile>
